<svg width="35" height="34" viewBox="0 0 35 34" fill="none" xmlns="http://www.w3.org/2000/svg">
<path d="M0.5 15.1111C0.5 7.98811 0.5 4.42567 2.71378 2.21378C4.92756 0.00188875 8.48811 0 15.6111 0H19.3889C26.5119 0 30.0743 -2.25173e-07 32.2862 2.21378C34.4981 4.42756 34.5 7.98811 34.5 15.1111V18.8889C34.5 26.0119 34.5 29.5743 32.2862 31.7862C30.0724 33.9981 26.5119 34 19.3889 34H15.6111C8.48811 34 4.92567 34 2.71378 31.7862C0.501889 29.5724 0.5 26.0119 0.5 18.8889V15.1111Z" fill="#14AE5C" fill-opacity="0.25"/>
<path d="M17.5 20.7778C21.6728 20.7778 25.0556 17.3951 25.0556 13.2222C25.0556 9.04942 21.6728 5.66669 17.5 5.66669C13.3272 5.66669 9.94446 9.04942 9.94446 13.2222C9.94446 17.3951 13.3272 20.7778 17.5 20.7778Z" fill="#14AE5C"/>
<path fill-rule="evenodd" clip-rule="evenodd" d="M30.6201 32.589C30.636 32.686 30.6184 32.7856 30.5704 32.8713C30.5224 32.9571 30.4467 33.0241 30.3557 33.0612C28.0871 34 24.7457 34 19.3888 34H15.611C10.256 34 6.91267 34 4.64411 33.0594C4.55347 33.0222 4.47802 32.9556 4.43002 32.8702C4.38202 32.7848 4.36427 32.6857 4.37967 32.589C5.19 26.996 10.7547 22.6667 17.4999 22.6667C24.2451 22.6667 29.8098 26.996 30.6201 32.589Z" fill="#14AE5C"/>
</svg>
